<svg width="20" height="20" viewBox="0 0 20 20" fill="none" xmlns="http://www.w3.org/2000/svg">
<g clip-path="url(#clip0_64_1319)">
<path d="M8.33335 12.4998L5.77064 15.0946C5.41317 15.4565 5.23444 15.6375 5.08081 15.6502C4.94753 15.6613 4.81703 15.6077 4.72999 15.5062C4.62965 15.3892 4.62965 15.1348 4.62965 14.6261V13.3262C4.62965 12.8698 4.25592 12.5396 3.80436 12.4734V12.4734C2.71147 12.3134 1.85317 11.4551 1.69308 10.3622C1.66669 10.182 1.66669 9.96693 1.66669 9.53687V5.6665C1.66669 4.26637 1.66669 3.56631 1.93917 3.03153C2.17885 2.56112 2.56131 2.17867 3.03171 1.93899C3.56649 1.6665 4.26656 1.6665 5.66669 1.6665H11.8334C13.2335 1.6665 13.9336 1.6665 14.4683 1.93899C14.9387 2.17867 15.3212 2.56112 15.5609 3.03153C15.8334 3.56631 15.8334 4.26637 15.8334 5.6665V9.1665M15.8334 18.3332L14.0197 17.0722C13.7647 16.895 13.6373 16.8064 13.4985 16.7435C13.3754 16.6878 13.2459 16.6472 13.113 16.6227C12.9632 16.5951 12.808 16.5951 12.4975 16.5951H11C10.0666 16.5951 9.59989 16.5951 9.24337 16.4134C8.92977 16.2536 8.6748 15.9987 8.51501 15.6851C8.33335 15.3285 8.33335 14.8618 8.33335 13.9284V11.8332C8.33335 10.8998 8.33335 10.433 8.51501 10.0765C8.6748 9.76292 8.92977 9.50795 9.24337 9.34816C9.59989 9.1665 10.0666 9.1665 11 9.1665H15.6667C16.6001 9.1665 17.0668 9.1665 17.4233 9.34816C17.7369 9.50795 17.9919 9.76292 18.1517 10.0765C18.3334 10.433 18.3334 10.8997 18.3334 11.8332V14.0951C18.3334 14.8716 18.3334 15.2599 18.2065 15.5662C18.0373 15.9746 17.7129 16.2991 17.3045 16.4682C16.9982 16.5951 16.6099 16.5951 15.8334 16.5951V18.3332Z" stroke="#EA580C" stroke-width="1.66667" stroke-linecap="round" stroke-linejoin="round"/>
</g>
<defs>
<clipPath id="clip0_64_1319">
<rect width="20" height="20" fill="white"/>
</clipPath>
</defs>
</svg>
